
<svg width="512px" height="512px" viewBox="0 0 13.65332 13.65332" xmlns="http://www.w3.org/2000/svg" fill="#000000">
  <defs>
    <style type="text/css">
      .str0 {stroke:#373435;stroke-width:0.01388976;stroke-linecap:round;stroke-linejoin:round}
      .fil4 {fill:none}
      .fil3 {fill:#a8deff}
      .fil1 {fill:#ffffff}
      .fil2 {fill:#009dff}
      .fil0 {fill:black;fill-rule:nonzero}
    </style>
  </defs>
  <g>
    <path class="fil0" d="M8.66636 6.84468c-0.0589056,0 -0.106669,0.0477638 -0.106669,0.106669 0,0.0589056 0.0477638,0.106669 0.106669,0.106669l3.06698 0 0 4.44914 -9.81334 0 0 -4.44914 3.06302 0c0.0589056,0 0.106669,-0.0477638 0.106669,-0.106669 0,-0.0589056 -0.0477638,-0.106669 -0.106669,-0.106669l-3.16968 0c-0.0589056,0 -0.106669,0.0477638 -0.106669,0.106669l0 4.66248c0,0.0589056 0.0477638,0.106669 0.106669,0.106669l10.0267 0c0.0589056,0 0.106669,-0.0477638 0.106669,-0.106669l0 -4.66248c0,-0.0589056 -0.0477638,-0.106669 -0.106669,-0.106669l-3.17364 0z"/>
    <path class="fil0" d="M4.88598 11.6138c0,0.0589056 0.0477638,0.106669 0.106669,0.106669 0.0589056,0 0.106669,-0.0477638 0.106669,-0.106669l0 -5.4609c0,-0.0589056 -0.0477638,-0.106669 -0.106669,-0.106669 -0.00320472,0 -0.0063622,0.000149606 -0.00949606,0.000425196l-0.463552 0.00052756 2.30706 -2.30706 2.30706 2.30706 -0.472938 -0.00052756 0 -0.000409448c-0.0589056,-6.29922e-005 -0.106717,0.0476378 -0.10678,0.106543l0 0.000118102 -7.87402e-006 0 0 5.46088c0,0.0589056 0.0477638,0.106669 0.106669,0.106669 0.0589056,0 0.106669,-0.0477638 0.106669,-0.106669l0 -5.35452 0.61426 0.000692914c0.030378,0.00270078 0.061685,-0.0075748 0.0849292,-0.0308188 0.0416536,-0.0416536 0.0416536,-0.109197 0,-0.15085l-7.87402e-006 7.87402e-006 -2.5638 -2.5638 -0.000637796,-0.000653544c-0.0416536,-0.0416536 -0.109197,-0.0416536 -0.15085,0l7.87402e-006 7.87402e-006 -2.56416 2.56416c-0.0194961,0.0193543 -0.0315512,0.0461732 -0.0315196,0.075811 6.29922e-005,0.0589056 0.047874,0.106606 0.10678,0.106543l0 -0.000409448 0.623638 -0.000708662 0 5.35452z"/>
    <path class="fil0" d="M2.86966 7.6826l1.06666 0c0.0589056,0 0.106669,0.0477638 0.106669,0.106669l0 1.06666c0,0.0589056 -0.0477638,0.106669 -0.106669,0.106669l-1.06666 0c-0.0589056,0 -0.106669,-0.0477638 -0.106669,-0.106669l0 -1.06666c0,-0.0589056 0.0477638,-0.106669 0.106669,-0.106669zm0.959992 0.213338l-0.853322 0 0 0.853322 0.853322 0 0 -0.853322z"/>
    <path class="fil0" d="M2.86966 9.6026l1.06666 0c0.0589056,0 0.106669,0.0477638 0.106669,0.106669l0 1.06666c0,0.0589056 -0.0477638,0.106669 -0.106669,0.106669l-1.06666 0c-0.0589056,0 -0.106669,-0.0477638 -0.106669,-0.106669l0 -1.06666c0,-0.0589056 0.0477638,-0.106669 0.106669,-0.106669zm0.959992 0.213338l-0.853322 0 0 0.853322 0.853322 0 0 -0.853322z"/>
    <path class="fil0" d="M9.717 7.6826l1.06666 0c0.0589056,0 0.106669,0.0477638 0.106669,0.106669l0 1.06666c0,0.0589056 -0.0477638,0.106669 -0.106669,0.106669l-1.06666 0c-0.0589056,0 -0.106669,-0.0477638 -0.106669,-0.106669l0 -1.06666c0,-0.0589056 0.0477638,-0.106669 0.106669,-0.106669zm0.959992 0.213338l-0.853322 0 0 0.853322 0.853322 0 0 -0.853322z"/>
    <path class="fil0" d="M9.717 9.6026l1.06666 0c0.0589056,0 0.106669,0.0477638 0.106669,0.106669l0 1.06666c0,0.0589056 -0.0477638,0.106669 -0.106669,0.106669l-1.06666 0c-0.0589056,0 -0.106669,-0.0477638 -0.106669,-0.106669l0 -1.06666c0,-0.0589056 0.0477638,-0.106669 0.106669,-0.106669zm0.959992 0.213338l-0.853322 0 0 0.853322 0.853322 0 0 -0.853322z"/>
    <path class="fil0" d="M6.82666 5.03134c0.224544,0 0.427842,0.0910236 0.575008,0.238188 0.147165,0.147165 0.238188,0.350464 0.238188,0.575008 0,0.224544 -0.0910236,0.427842 -0.238188,0.575008 -0.147165,0.147165 -0.350464,0.238188 -0.575008,0.238188 -0.224544,0 -0.427842,-0.0910236 -0.575008,-0.238188 -0.147165,-0.147165 -0.238188,-0.350464 -0.238188,-0.575008 0,-0.224544 0.0910236,-0.427842 0.238188,-0.575008 0.147165,-0.147165 0.350464,-0.238188 0.575008,-0.238188zm0.424174 0.389024c-0.108543,0.108543 -0.25852,0.175685 -0.424174,0.175685 -0.165654,0 -0.31563,0.0671418 -0.424174,0.175685 -0.108543,0.108543 -0.175685,0.25852 -0.175685,0.424174 0,0.165654 0.0671418,0.31563 0.175685,0.424174 0.108543,0.108543 0.25852,0.175685 0.424174,0.175685 0.165654,0 0.31563,-0.0671418 0.424174,-0.175685 0.108543,-0.108543 0.175685,-0.25852 0.175685,-0.424174 0,-0.165654 -0.0671418,-0.31563 -0.175685,-0.424174z"/>
    <path class="fil0" d="M5.76 7.37802l2.13334 0c0.0589056,0 0.106669,0.0477638 0.106669,0.106669l0 0.639992c0,0.0589056 -0.0477638,0.106669 -0.106669,0.106669l-2.13334 0c-0.0589056,0 -0.106669,-0.0477638 -0.106669,-0.106669l0 -0.639992c0,-0.0589056 0.0477638,-0.106669 0.106669,-0.106669zm2.02666 0.213338l-1.91999 0 0 0.426654 1.91999 0 0 -0.426654z"/>
    <path class="fil0" d="M5.65334 11.6138c0,0.0589056 0.0477638,0.106669 0.106669,0.106669 0.0589056,0 0.106669,-0.0477638 0.106669,-0.106669l0 -2.74248 1.91999 0 0 2.74248c0,0.0589056 0.0477638,0.106669 0.106669,0.106669 0.0589056,0 0.106669,-0.0477638 0.106669,-0.106669l0 -2.84914c0,-0.0589056 -0.0477638,-0.106669 -0.106669,-0.106669l-2.13334 0c-0.0589056,0 -0.106669,0.0477638 -0.106669,0.106669l0 2.84914z"/>
    <path class="fil0" d="M6.93334 2.03948c0,-0.0589056 -0.0477638,-0.106669 -0.106669,-0.106669 -0.0589056,0 -0.106669,0.0477638 -0.106669,0.106669l0 1.54777c0,0.0589056 0.0477638,0.106669 0.106669,0.106669 0.0589056,0 0.106669,-0.0477638 0.106669,-0.106669l0 -1.54777z"/>
    <path class="fil0" d="M6.8662 1.94073c-0.0545354,-0.0218582 -0.116472,0.00462992 -0.138331,0.0591654 -0.0218582,0.0545354 0.00462992,0.116472 0.0591654,0.138331l0.819804 0.327922 -0.819804 0.327922c-0.0545354,0.0218582 -0.0810236,0.0837952 -0.0591654,0.138331 0.0218582,0.0545354 0.0837952,0.0810236 0.138331,0.0591654l1.05937 -0.423748c0.0293386,-0.00933858 0.054433,-0.0312362 0.066756,-0.0620552 0.021874,-0.054693 -0.00473228,-0.11678 -0.0594252,-0.138654l-0.000102362 0.000259842 -1.0666 -0.426638z"/>
    <path class="fil1 str0" d="M9.13372 6.04722l-2.30706 -2.30706 -2.30706 2.30706 0.463552 -0.00052756c0.00313386,-0.00027559 0.00629134,-0.000425196 0.00949606,-0.000425196 0.0589056,0 0.106669,0.0477638 0.106669,0.106669l0 5.35422 0.554016 0 0 -2.74248c0,-0.0589056 0.0477638,-0.106669 0.106669,-0.106669l2.13334 0c0.0589056,0 0.106669,0.0477638 0.106669,0.106669l0 2.74248 0.554 0 7.87402e-006 -5.35422 0 -0.000118102c6.29922e-005,-0.0589056 0.047874,-0.106606 0.10678,-0.106543l0 0.000409448 0.472938 0.00052756zm-1.49387 -0.202678c0,0.224544 -0.0910236,0.427842 -0.238188,0.575008 -0.147165,0.147165 -0.350464,0.238188 -0.575008,0.238188 -0.224544,0 -0.427842,-0.0910236 -0.575008,-0.238188 -0.147165,-0.147165 -0.238188,-0.350464 -0.238188,-0.575008 0,-0.224544 0.0910236,-0.427842 0.238188,-0.575008 0.147165,-0.147165 0.350464,-0.238188 0.575008,-0.238188 0.224544,0 0.427842,0.0910236 0.575008,0.238188 0.147165,0.147165 0.238188,0.350464 0.238188,0.575008zm-1.87986 1.53348l2.13334 0c0.0589056,0 0.106669,0.0477638 0.106669,0.106669l0 0.639992c0,0.0589056 -0.0477638,0.106669 -0.106669,0.106669l-2.13334 0c-0.0589056,0 -0.106669,-0.0477638 -0.106669,-0.106669l0 -0.639992c0,-0.0589056 0.0477638,-0.106669 0.106669,-0.106669z"/>
    <path class="fil1 str0" d="M11.7333 7.05802l-2.966 0 0 4.44914 2.966 0 0 -4.44914zm-0.949662 0.624566c0.0589056,0 0.106669,0.0477638 0.106669,0.106669l0 1.06666c0,0.0589056 -0.0477638,0.106669 -0.106669,0.106669l-1.06666 0c-0.0589056,0 -0.106669,-0.0477638 -0.106669,-0.106669l0 -1.06666c0,-0.0589056 0.0477638,-0.106669 0.106669,-0.106669l1.06666 0zm-1.06666 1.92l1.06666 0c0.0589056,0 0.106669,0.0477638 0.106669,0.106669l0 1.06666c0,0.0589056 -0.0477638,0.106669 -0.106669,0.106669l-1.06666 0c-0.0589056,0 -0.106669,-0.0477638 -0.106669,-0.106669l0 -1.06666c0,-0.0589056 0.0477638,-0.106669 0.106669,-0.106669z"/>
    <path class="fil1 str0" d="M4.88598 11.5072l0 -4.44914 -2.96598 0 0 4.44914 2.96598 0zm-0.842992 -3.7179l0 1.06666c0,0.0589056 -0.0477638,0.106669 -0.106669,0.106669l-1.06666 0c-0.0589056,0 -0.106669,-0.0477638 -0.106669,-0.106669l0 -1.06666c0,-0.0589056 0.0477638,-0.106669 0.106669,-0.106669l1.06666 0c0.0589056,0 0.106669,0.0477638 0.106669,0.106669zm-1.17333 1.81333l1.06666 0c0.0589056,0 0.106669,0.0477638 0.106669,0.106669l0 1.06666c0,0.0589056 -0.0477638,0.106669 -0.106669,0.106669l-1.06666 0c-0.0589056,0 -0.106669,-0.0477638 -0.106669,-0.106669l0 -1.06666c0,-0.0589056 0.0477638,-0.106669 0.106669,-0.106669z"/>
    <polygon class="fil2 str0" points="6.93334,2.73556 7.60684,2.46614 6.93334,2.19674"/>
    <path class="fil3 str0" d="M7.25084 5.42038c-0.108543,-0.108543 -0.25852,-0.175685 -0.424174,-0.175685 -0.165654,0 -0.31563,0.0671418 -0.424174,0.175685 -0.108543,0.108543 -0.175685,0.25852 -0.175685,0.424174 0,0.165654 0.0671418,0.31563 0.175685,0.424174 0.108543,0.108543 0.25852,0.175685 0.424174,0.175685 0.165654,0 0.31563,-0.0671418 0.424174,-0.175685 0.108543,-0.108543 0.175685,-0.25852 0.175685,-0.424174 0,-0.165654 -0.0671418,-0.31563 -0.175685,-0.424174z"/>
    <polygon class="fil3 str0" points="9.82368,7.89592 9.82368,8.74926 10.677,8.74926 10.677,7.89592"/>
    <polygon class="fil3 str0" points="10.677,9.81592 9.82368,9.81592 9.82368,10.6693 10.677,10.6693"/>
    <polygon class="fil3 str0" points="3.82964,8.74926 3.82964,7.89592 2.97632,7.89592 2.97632,8.74926"/>
    <polygon class="fil3 str0" points="3.82964,9.81592 2.97632,9.81592 2.97632,10.6693 3.82964,10.6693"/>
    <polygon class="fil3 str0" points="5.86666,8.87136 5.86666,11.5072 7.78666,11.5072 7.78666,8.87136"/>
    <polygon class="fil3 str0" points="5.86666,8.01802 7.78666,8.01802 7.78666,7.59136 5.86666,7.59136"/>
    <rect class="fil4" height="13.65332" width="13.65332"/>
  </g>
</svg>