<svg xmlns="http://www.w3.org/2000/svg" viewBox="0 0 256 256">
  <g transform="translate(4 4) scale(2.7)">
    <path
      d="M 45 1.802 c 16.583 0 30.075 13.491 30.075 30.075 c 0 7.102 -2.538 14.004 -7.145 19.434 L 45 78.317 L 22.07 51.311 c -4.608 -5.43 -7.145 -12.332 -7.145 -19.434 C 14.925 15.294 28.417 1.802 45 1.802 M 45 45.692 c 8.222 0 14.912 -6.689 14.912 -14.912 c 0 -8.222 -6.689 -14.912 -14.912 -14.912 S 30.088 22.557 30.088 30.78 C 30.088 39.002 36.778 45.692 45 45.692"
      fill="white"
      stroke="white"
      stroke-width="2.5"
      stroke-linejoin="round"
    />

    <path
      d="M 58.814 71.531 l -1.575 1.575 c 9.772 1.532 15.583 4.707 15.583 7.094 c 0 3.261 -10.838 7.997 -27.822 7.997 S 17.178 83.461 17.178 80.2 c 0 -2.387 5.811 -5.562 15.583 -7.094 l -1.575 -1.575 c -9.401 1.643 -15.81 4.907 -15.81 8.669 c 0 5.412 13.263 9.8 29.625 9.8 c 16.361 0 29.625 -4.388 29.625 -9.8 C 74.625 76.439 68.215 73.174 58.814 71.531 z"
      fill="white"
      stroke="white"
      stroke-width="2.5"
      stroke-linejoin="round"
    />
  </g>
</svg>
